# xmcd CD database file
#
# Track frame offsets:
#	150
#	19205
#	35442
#	52495
#	74712
#	93635
#	123165
#
# Disc length: 4440 seconds
#
# Revision: 0
# Processed by: cddbd v1.5.1PL0 Copyright (c) Steve Scherf et al.
# Submitted via: CDex 1.51
#
DISCID=68115607
DTITLE=奥村愛子 - 蝶
DYEAR=2004
DGENRE=Jazz
TTITLE0=蝶
TTITLE1=今日からふたりで
TTITLE2=ダンスフロアでもう一度
TTITLE3=波と風と月と星と
TTITLE4=As Tme Goes By
TTITLE5=サンクスフォー
TTITLE6=データ
EXTD=YEAR: 2004
EXTT0=
EXTT1=
EXTT2=
EXTT3=
EXTT4=
EXTT5=
EXTT6=
PLAYORDER=
